# xmcd CD database file
#
# Track frame offsets:
#	150
#	19308
#	38875
#	61463
#	91168
#	115498
#	139871
#	158444
#	174569
#	197044
#	219531
#	245828
#	283567
#	331599
#
# Disc length: 4702 seconds
#
# Revision: 0
# Processed by: cddbd v1.5.1PL0 Copyright (c) Steve Scherf et al.
# Submitted via: CDex 1.51
#
DISCID=c7125c0e
DTITLE=Kenny G - Paradise Disc 2
DYEAR=2002
DGENRE=Jazz
TTITLE0=Going home
TTITLE1=The joy of life
TTITLE2=Forever in love
TTITLE3=Sentimental
TTITLE4=End of the night
TTITLE5=Alone
TTITLE6=G-bop
TTITLE7=Baby G
TTITLE8=Everything I close my eyes
TTITLE9=Even if my heart would break
TTITLE10=Sade
TTITLE11=Midnight motion
TTITLE12=Songbird
TTITLE13=Jasmine
EXTD=YEAR: 2002
EXTT0=
EXTT1=
EXTT2=
EXTT3=
EXTT4=
EXTT5=
EXTT6=
EXTT7=
EXTT8=
EXTT9=
EXTT10=
EXTT11=
EXTT12=
EXTT13=
PLAYORDER=
